<?xml version="1.0" encoding="utf-8"?>
<!-- Generator: Adobe Illustrator 25.1.0, SVG Export Plug-In . SVG Version: 6.00 Build 0)  -->
<svg version="1.1" id="Layer_1" xmlns="http://www.w3.org/2000/svg" xmlns:xlink="http://www.w3.org/1999/xlink" x="0px" y="0px"
	 viewBox="0 0 1493.7 1004.8" enable-background="new 0 0 1493.7 1004.8" xml:space="preserve">
<g id="Layer_1_1_">
	<g>
		<path fill="#1D1915" d="M-52.8,335.9c18.1,7.6,39,6.5,57.4-0.4c18.8-7.1,36.2-20.3,56.3-20.3c8.8,0,17.4,2.5,26.1,4.4
			c15.5,3.4,32.3,4.4,46.5-2.6s24.2-24.3,18.6-39.1c-6.7-17.8-29.7-22.3-43.5-35.4c-13.4-12.7-17.1-32.6-16.5-51.1
			c0.6-18.4,4.6-36.7,3.7-55.2c-1-19.2-7.8-38.6-21.2-52.4C61.2,69.9,40.9,62.3,22.1,66.3c-27,5.8-45.1,32.6-71.6,40.5
			c-10.6,3.2-22,3.1-33.1,3.7v197.6C-76.7,320.5-65.7,330.6-52.8,335.9z"/>
	</g>
	<path fill="#1D1915" d="M1499.8,266.2c-11.7-6-23.1-12.4-35.2-17.7c-0.9-0.4-3-1.2-3.6-1.5c-1.4-0.5-2.8-1-4.2-1.5
		c-3.1-1-6.2-2-9.4-2.8c-1.7-0.4-3.5-0.8-5.2-1.1c-0.5-0.1-1.7-0.2-2.5-0.3c-2.1-0.2-4.1-0.3-6.2-0.3c-1.4,0-7,0.7-5.7,0.4
		c-1.4,0.3-2.7,0.5-4.1,0.9c-1.5,0.4-2.9,0.8-4.3,1.3c-0.6,0.3-4,1.8-4.9,2.3c-2.5,1.4-5,2.9-7.3,4.6l-0.1,0.1
		c-0.1,0.1-0.2,0.2-0.3,0.3c-1.1,0.9-2.1,1.8-3.1,2.7c-2,1.9-4.1,3.7-6,5.8c-0.5,0.5-0.9,1.1-1.4,1.6c-0.4,0.5-1.1,1.5-1.3,1.9
		c-1.3,2.1-2.6,4.2-3.6,6.5c-0.2,0.6-0.5,1.2-0.6,1.6c-0.4,1.2-0.8,2.4-1.2,3.6c-0.7,2.4-1.3,4.9-1.8,7.4c-0.1,0.7-0.3,1.5-0.4,2.2
		c-0.1,0.7-0.2,1.6-0.2,1.9c-1,11.3-0.6,22.6-0.1,34c1.2,24.3,2.8,49.7-7,72.6c-6.6,15.4-18.2,28.8-29.7,40.7
		c-35.5,36.8-133.9,91.4-77.8,154.5c20.2,22.8,52,23.6,79.8,28.6c16.8,3,32.1,10,47.1,17.8c21.8,11.3,43,18.2,62.9,20.7
		c18.4,2.4,35.7,1,51.3-4.2V273.1C1508.9,270.9,1504.3,268.6,1499.8,266.2z"/>
	<path fill="#1D1915" d="M149.9,520.1C135.1,509.1,0,486.2,0,475.1v377.7c38.8-12.9,67-49.3,75.7-109.6c3.7-25.6,4.2-53.6,20.8-73.5
		c15.3-18.3,40.7-24.8,58.5-40.7C186,601.4,183.4,544.9,149.9,520.1z"/>
</g>
<g id="Layer_2_1_">
</g>
<path fill="#1D1915" d="M929.3,426.3c-13.3-42.3-113.6-81-153.4-77c-48.7,4.9-84.6,42.4-129.9,55.8c-11.4,3.4-22.3,3.9-33.7,2.7
	c-12-6.8-23.7-14.2-36.1-20.2c-24.8-12.1-56.7-17.7-78.4-0.6c-23.6,18.5-23.8,54-17.1,83.2c6.8,29.2,18.4,59,11.3,88.1
	c-5.1,20.8-19.8,40.4-15.8,61.5c4.6,24.6,32.1,37.5,56.8,41.4c24.7,3.9,51.4,3.2,72.4,16.8c7.1,4.6,13.2,10.7,20.7,14.5
	c18.4,9.3,42.1,2.4,56.8-12.1c14.7-14.5,21.8-35.1,25.4-55.4c1.9-10.6,2.9-21.5,6.8-31.5c9.9-25.4,36-40.7,62-49
	c40.2-12.8,101.8-23.1,134.2-54.6C927.5,473.8,936.2,448.3,929.3,426.3z"/>
</svg>
