<?xml version="1.0" encoding="utf-8"?>
<!-- Generator: Adobe Illustrator 25.1.0, SVG Export Plug-In . SVG Version: 6.00 Build 0)  -->
<svg version="1.1" id="Layer_1" xmlns="http://www.w3.org/2000/svg" xmlns:xlink="http://www.w3.org/1999/xlink" x="0px" y="0px"
	 viewBox="0 0 1400 974" enable-background="new 0 0 1400 974" xml:space="preserve">
<g id="Layer_2_1_">
</g>
<g id="Layer_1_1_">
	<g>
		<path fill="#1D1915" d="M1281.3,933.3c-10.2-7.6-23.4-10-36.2-10.9c-14.8-1.1-29.8-0.6-44.2-3.7c-34.8-7.6-53.8-43.9-80.1-64.4
			c-31.1-24.3-76.7-30.4-114.5-21.4c-21.2,5-39.8,20-49.3,39.5c-10,20.5-10.5,45.8-25.6,63c-12.9,14.8-33.4,19.8-50.8,28.8
			c-5,2.6-9.9,5.9-14.2,9.8h429.1C1298.4,959.1,1293.5,942.5,1281.3,933.3z"/>
	</g>
	<path fill="#1D1915" d="M1386.1,143.3c-11.7-6-23.1-12.4-35.2-17.7c-0.9-0.4-3-1.2-3.6-1.5c-1.4-0.5-2.8-1-4.2-1.5
		c-3.1-1-6.2-2-9.4-2.8c-1.7-0.4-3.5-0.8-5.2-1.1c-0.5-0.1-1.7-0.2-2.5-0.3c-2.1-0.2-4.1-0.3-6.2-0.3c-1.4,0-7,0.7-5.7,0.4
		c-1.4,0.3-2.7,0.5-4.1,0.9c-1.5,0.4-2.9,0.8-4.3,1.3c-0.6,0.3-4,1.8-4.9,2.3c-2.5,1.4-5,2.9-7.3,4.6l-0.1,0.1
		c-0.1,0.1-0.2,0.2-0.3,0.3c-1.1,0.9-2.1,1.8-3.1,2.7c-2,1.9-4.1,3.7-6,5.8c-0.5,0.5-0.9,1.1-1.4,1.6c-0.4,0.5-1.1,1.5-1.3,1.9
		c-1.3,2.1-2.6,4.2-3.6,6.5c-0.2,0.6-0.5,1.2-0.6,1.6c-0.4,1.2-0.8,2.4-1.2,3.6c-0.7,2.4-1.3,4.9-1.8,7.4c-0.1,0.7-0.3,1.5-0.4,2.2
		s-0.2,1.6-0.2,1.9c-1,11.3-0.6,22.6-0.1,34c1.2,24.3,2.8,49.7-7,72.6c-6.6,15.4-18.2,28.8-29.7,40.7
		c-35.5,36.8-133.9,91.4-77.8,154.5c20.2,22.8,52,23.6,79.8,28.6c16.8,3,32.1,10,47.1,17.8c21.8,11.3,43,18.2,62.9,20.7
		c18.4,2.4,35.7,1,51.3-4.2V150.2C1395.2,148,1390.6,145.7,1386.1,143.3z"/>
	<path fill="#1D1915" d="M155,878c-17.8-15.9-43.2-22.4-58.5-40.7c-16.6-19.9-17.1-47.9-20.8-73.5C67,703.5,38.8,667.1,0,654.2
		v377.7c0-11.1,135.1-34,149.9-45C183.4,962.1,186,905.6,155,878z"/>
	<path fill="#1D1915" d="M238.3-5.1c6,11.7,12.4,23.1,17.7,35.2c0.4,0.9,1.2,3,1.5,3.6c0.5,1.4,1,2.8,1.5,4.2c1,3.1,2,6.2,2.8,9.4
		c0.4,1.7,0.8,3.5,1.1,5.2c0.1,0.5,0.2,1.7,0.3,2.5c0.2,2.1,0.3,4.1,0.3,6.2c0,1.4-0.7,7-0.4,5.7c-0.3,1.4-0.5,2.7-0.9,4.1
		c-0.4,1.5-0.8,2.9-1.3,4.3c-0.3,0.6-1.8,4-2.3,4.9c-1.4,2.5-2.9,5-4.6,7.3l-0.1,0.1c-0.1,0.1-0.2,0.2-0.3,0.3
		c-0.9,1.1-1.8,2.1-2.7,3.1c-1.9,2-3.7,4.1-5.8,6c-0.5,0.5-1.1,0.9-1.6,1.4c-0.5,0.4-1.5,1.1-1.9,1.3c-2.1,1.3-4.2,2.6-6.5,3.6
		c-0.6,0.2-1.2,0.5-1.6,0.6c-1.2,0.4-2.4,0.8-3.6,1.2c-2.4,0.7-4.9,1.3-7.4,1.8c-0.7,0.1-1.5,0.3-2.2,0.4s-1.6,0.2-1.9,0.2
		c-11.3,1-22.6,0.6-34,0.1c-24.3-1.2-49.7-2.8-72.6,7c-15.4,6.6-28.8,18.2-40.7,29.7c-36.8,35.5-91.4,133.9-154.5,77.8
		c-22.8-20.2-23.6-52-28.6-79.8c-3-16.8-10-32.1-17.8-47.1c-11.3-21.9-18.2-43.1-20.7-62.9c-2.4-18.4-1-35.7,4.2-51.3h377.7
		C233.6-14.2,236-9.6,238.3-5.1z"/>
	<path fill="#1D1915" d="M964.6,337.6c-13.9-8.5-31.3-7.1-47.4-9.4c-16.4-2.4-32-8.8-48.3-12.2c-16.3-3.4-34.5-3.3-48,6.4
		c-7.7,5.4-13.1,13.4-20,19.8c-23.5,21.1-58.7,19.5-90.3,19.7s-68.6,7.1-82.4,35.5c-13.8,28.7,4,64-6.1,94.2
		c-4.4,13.2-14.2,26.3-10,39.6c1.9,6.2,6.7,11.2,12.4,14.5c17.7,10.5,40.8,4.5,58.6-5.8c17.8-10.4,33.3-24.8,52.5-32.4
		c18.5-7.3,39.7-7.5,58.3-0.6c19.8,7.3,39.8,22.7,59.8,15.8c16.8-5.8,24.7-24.8,28.5-42.2c3.8-17.3,6.2-36.3,18.5-49.2
		c19.4-20.2,55.7-16.8,73.4-38.4C987.3,376.6,982.6,348.7,964.6,337.6z"/>
</g>
</svg>
