<?xml version="1.0" encoding="utf-8"?>
<!-- Generator: Adobe Illustrator 25.1.0, SVG Export Plug-In . SVG Version: 6.00 Build 0)  -->
<svg version="1.1" id="Layer_1" xmlns="http://www.w3.org/2000/svg" xmlns:xlink="http://www.w3.org/1999/xlink" x="0px" y="0px"
	 viewBox="0 0 1400 974" enable-background="new 0 0 1400 974" xml:space="preserve">
<g id="Layer_2_1_">
</g>
<g id="Layer_1_1_">
	<g>
		<path d="M568.7,30c-7.6,18.1-6.5,39,0.4,57.4c7.1,18.8,20.3,36.2,20.3,56.3c0,8.8-2.5,17.4-4.4,26.1c-3.4,15.5-4.4,32.3,2.6,46.5
			s24.3,24.2,39.1,18.6c17.8-6.7,22.3-29.7,35.4-43.5c12.7-13.4,32.6-17.1,51.1-16.5c18.4,0.6,36.7,4.6,55.2,3.7
			c19.2-1,38.6-7.8,52.4-21.2c13.9-13.4,21.5-33.7,17.5-52.5c-5.8-27-32.6-45.1-40.5-71.6c-3.2-10.6-3.1-22-3.7-33.1H596.5
			C584.1,6.1,574,17.1,568.7,30z"/>
	</g>
	<g>
		<path d="M1281.3,933.3c-10.2-7.6-23.4-10-36.2-10.9c-14.8-1.1-29.8-0.6-44.2-3.7c-34.8-7.6-53.8-43.9-80.1-64.4
			c-31.1-24.3-76.7-30.4-114.5-21.4c-21.2,5-39.8,20-49.3,39.5c-10,20.5-10.5,45.8-25.6,63c-12.9,14.8-33.4,19.8-50.8,28.8
			c-5,2.6-9.9,5.9-14.2,9.8h429.1C1298.4,959.1,1293.5,942.5,1281.3,933.3z"/>
	</g>
	<path d="M1386.1,143.3c-11.7-6-23.1-12.4-35.2-17.7c-0.9-0.4-3-1.2-3.6-1.5c-1.4-0.5-2.8-1-4.2-1.5c-3.1-1-6.2-2-9.4-2.8
		c-1.7-0.4-3.5-0.8-5.2-1.1c-0.5-0.1-1.7-0.2-2.5-0.3c-2.1-0.2-4.1-0.3-6.2-0.3c-1.4,0-7,0.7-5.7,0.4c-1.4,0.3-2.7,0.5-4.1,0.9
		c-1.5,0.4-2.9,0.8-4.3,1.3c-0.6,0.3-4,1.8-4.9,2.3c-2.5,1.4-5,2.9-7.3,4.6l-0.1,0.1c-0.1,0.1-0.2,0.2-0.3,0.3
		c-1.1,0.9-2.1,1.8-3.1,2.7c-2,1.9-4.1,3.7-6,5.8c-0.5,0.5-0.9,1.1-1.4,1.6c-0.4,0.5-1.1,1.5-1.3,1.9c-1.3,2.1-2.6,4.2-3.6,6.5
		c-0.2,0.6-0.5,1.2-0.6,1.6c-0.4,1.2-0.8,2.4-1.2,3.6c-0.7,2.4-1.3,4.9-1.8,7.4c-0.1,0.7-0.3,1.5-0.4,2.2s-0.2,1.6-0.2,1.9
		c-1,11.3-0.6,22.6-0.1,34c1.2,24.3,2.8,49.7-7,72.6c-6.6,15.4-18.2,28.8-29.7,40.7c-35.5,36.8-133.9,91.4-77.8,154.5
		c20.2,22.8,52,23.6,79.8,28.6c16.8,3,32.1,10,47.1,17.8c21.8,11.3,43,18.2,62.9,20.7c18.4,2.4,35.7,1,51.3-4.2V150.2
		C1395.2,148,1390.6,145.7,1386.1,143.3z"/>
	<path d="M44.9,530.2c-14.8-11-149.9-33.9-149.9-45v377.7c38.8-12.9,67-49.3,75.7-109.6c3.7-25.6,4.2-53.6,20.8-73.5
		C6.8,661.5,32.2,655,50,639.1C81,611.5,78.4,555,44.9,530.2z"/>
</g>
</svg>
