<?xml version="1.0" encoding="utf-8"?>
<!-- Generator: Adobe Illustrator 25.1.0, SVG Export Plug-In . SVG Version: 6.00 Build 0)  -->
<svg version="1.1" xmlns="http://www.w3.org/2000/svg" xmlns:xlink="http://www.w3.org/1999/xlink" x="0px" y="0px"
	 viewBox="0 0 744.3 974" enable-background="new 0 0 744.3 974" xml:space="preserve">
<g id="Layer_2">
</g>
<g id="Layer_1">
	<path fill="#1D1915" d="M605.8,974H176.7c4.3-3.9,9.3-7.2,14.2-9.8c17.4-9,37.9-14,50.8-28.8c15-17.2,15.6-42.5,25.6-63
		c9.5-19.6,28.1-34.5,49.3-39.5c37.8-9,83.4-2.8,114.5,21.4c26.3,20.5,45.2,56.9,80.1,64.4c14.5,3.1,29.5,2.6,44.2,3.7
		c12.7,0.9,25.9,3.3,36.2,10.9C603.8,942.5,608.6,959.1,605.8,974z"/>
	<path fill="#1D1915" d="M730.3,143.3c-11.7-6-23.1-12.4-35.2-17.7c-0.9-0.4-3-1.2-3.6-1.5c-1.4-0.5-2.8-1-4.2-1.5
		c-3.1-1-6.2-2-9.4-2.8c-1.7-0.4-3.5-0.8-5.2-1.1c-0.5-0.1-1.7-0.2-2.5-0.3c-2.1-0.2-4.1-0.3-6.2-0.3c-1.4,0-7,0.7-5.7,0.4
		c-1.4,0.3-2.7,0.5-4.1,0.9c-1.5,0.4-2.9,0.8-4.3,1.3c-0.6,0.3-4,1.8-4.9,2.3c-2.5,1.4-5,2.9-7.3,4.6c0,0-0.1,0.1-0.1,0.1
		c-0.1,0.1-0.2,0.2-0.3,0.3c-1.1,0.9-2.1,1.8-3.1,2.7c-2,1.9-4.1,3.7-6,5.8c-0.5,0.5-0.9,1.1-1.4,1.6c-0.4,0.5-1.1,1.5-1.3,1.9
		c-1.3,2.1-2.6,4.2-3.6,6.5c-0.2,0.6-0.5,1.2-0.6,1.6c-0.4,1.2-0.8,2.4-1.2,3.6c-0.7,2.4-1.3,4.9-1.8,7.4c-0.1,0.7-0.3,1.5-0.4,2.2
		c-0.1,0.7-0.2,1.6-0.2,1.9c-1,11.3-0.6,22.6-0.1,34c1.2,24.3,2.8,49.7-7,72.6c-6.6,15.4-18.2,28.8-29.7,40.7
		C545.5,347.3,447.1,402,503.2,465c20.2,22.8,52,23.6,79.8,28.6c16.8,3,32.1,10,47.1,17.8c21.8,11.3,43,18.2,62.9,20.7
		c18.4,2.4,35.7,1,51.3-4.2V150.2C739.5,148,734.9,145.7,730.3,143.3z"/>
	<path fill="#1D1915" d="M149.9,530.2C135.1,519.2,0,496.3,0,485.2c0,0,0,377.7,0,377.7c38.8-12.9,67-49.3,75.7-109.6
		c3.7-25.6,4.2-53.6,20.8-73.5c15.3-18.3,40.7-24.8,58.5-40.7C186,611.5,183.4,555,149.9,530.2z"/>
	<path fill="#1D1915" d="M143.1-30.4c0-2.1-0.1-4.1-0.3-6.2c-0.1-0.8-0.3-2-0.3-2.5c-0.3-1.8-0.7-3.5-1.1-5.2
		c-0.8-3.2-1.7-6.3-2.8-9.4c-0.5-1.4-1-2.8-1.5-4.2c-0.2-0.6-1.1-2.7-1.5-3.6c-5.2-12-11.7-23.5-17.7-35.2
		c-2.3-4.5-4.7-9.2-6.8-13.9H-33.6V38.6c7.7-6.2,16-11.8,25-15.7c22.9-9.8,48.3-8.2,72.6-7c11.3,0.6,22.7,1,34-0.1
		c0.4,0,1.3-0.1,1.9-0.2c0.7-0.1,1.5-0.2,2.2-0.4c2.5-0.5,5-1.1,7.4-1.8c1.2-0.3,2.4-0.7,3.6-1.2c0.3-0.1,1-0.4,1.6-0.6
		c2.2-1.1,4.4-2.3,6.5-3.6c0.4-0.2,1.4-1,1.9-1.3c0.5-0.5,1.1-0.9,1.6-1.4c2.1-1.8,3.9-3.9,5.8-6c0.9-1,1.8-2.1,2.7-3.1
		c0.1-0.1,0.2-0.2,0.3-0.3c0,0,0.1-0.1,0.1-0.1c1.7-2.3,3.2-4.8,4.6-7.3c0.5-0.9,2-4.3,2.3-4.9c0.5-1.4,0.9-2.9,1.3-4.3
		c0.4-1.3,0.7-2.7,0.9-4.1C142.4-23.4,143.1-29,143.1-30.4z"/>
</g>
</svg>
