<?xml version="1.0" encoding="utf-8"?>
<!-- Generator: Adobe Illustrator 25.1.0, SVG Export Plug-In . SVG Version: 6.00 Build 0)  -->
<svg version="1.1" id="Layer_1" xmlns="http://www.w3.org/2000/svg" xmlns:xlink="http://www.w3.org/1999/xlink" x="0px" y="0px"
	 viewBox="0 0 274.72 158.4" style="enable-background:new 0 0 274.72 158.4;" xml:space="preserve">
<path d="M15.3,102.74c6.59,7.83,17.29,10.45,26.43,15.03c9.36,4.69,17.37,11.65,26.42,16.91c9.05,5.26,19.95,8.8,29.95,5.73
	c5.65-1.74,10.49-5.43,15.91-7.79c18.22-7.95,38.97,0.05,57.87,6.22c18.9,6.17,42.41,9.46,56.27-4.8
	c13.96-14.36,10.37-39.03,22.41-55.04c5.27-7,13.69-12.89,13.9-21.65c0.09-4.09-1.78-8.05-4.47-11.14
	c-8.5-9.8-23.46-10.83-36.16-8.19c-12.7,2.64-24.86,8.17-37.81,8.87c-12.5,0.67-25.2-3.42-34.96-11.27
	c-10.38-8.35-19.26-21.47-32.57-21.34c-11.18,0.11-19.7,9.9-25.43,19.5S82.13,54.27,72.24,59.48c-15.59,8.21-36.59-1.07-51.5,8.33
	C9.45,74.93,6.71,92.53,15.3,102.74z"/>
</svg>
