<?xml version="1.0" encoding="utf-8"?>
<!-- Generator: Adobe Illustrator 25.1.0, SVG Export Plug-In . SVG Version: 6.00 Build 0)  -->
<svg version="1.1" id="Layer_1" xmlns="http://www.w3.org/2000/svg" xmlns:xlink="http://www.w3.org/1999/xlink" x="0px" y="0px"
	 viewBox="0 0 369.99 76.11" style="enable-background:new 0 0 369.99 76.11;" xml:space="preserve">
<path d="M10.91,6.51h30.51h0.33c0.22,0,0.41,0.17,0.58,0.5C42.39,7.12,42.61,7.7,43,8.75c0.39,1.05,0.88,2.39,1.49,4.02
	c0.61,1.63,1.3,3.47,2.07,5.51c0.77,2.05,1.58,4.15,2.4,6.3c1.88,5.03,4.01,10.73,6.39,17.08L68.29,7.09c0-0.11,0.05-0.22,0.17-0.33
	c0.11-0.22,0.33-0.33,0.66-0.33h31.43c0.11,0,0.22,0.03,0.33,0.08c0.11,0.11,0.21,0.24,0.29,0.38c0.08,0.14,0.12,0.35,0.12,0.63
	v9.85c0.05,0.17,0.05,0.31,0,0.42c-0.11,0.28-0.39,0.42-0.83,0.42h-7.13v39.72h7.21c0.11,0,0.25,0.03,0.41,0.08
	c0.28,0.17,0.41,0.39,0.41,0.67v10.11c0,0.17-0.03,0.31-0.08,0.42c-0.11,0.28-0.39,0.41-0.83,0.41H69.61
	c-0.11,0.06-0.22,0.03-0.33-0.08c-0.22-0.11-0.33-0.47-0.33-1.09v-9.77c0-0.11,0.03-0.25,0.08-0.42c0.11-0.28,0.36-0.42,0.75-0.42
	h6.55V18.2l-0.41,0.08L57.01,68.86c-0.06,0.17-0.11,0.31-0.17,0.41c-0.17,0.28-0.36,0.41-0.58,0.41h-6.55
	c-0.11,0-0.22-0.03-0.33-0.08c-0.22-0.11-0.36-0.3-0.41-0.58c-0.06-0.05-0.36-0.84-0.91-2.36c-0.55-1.52-1.29-3.46-2.2-5.84
	c-0.91-2.37-1.94-5.08-3.07-8.11c-1.13-3.03-2.31-6.13-3.52-9.27c-2.82-7.4-6-15.76-9.54-25.08h-0.41v39.47h7.3
	c0.11,0,0.25,0.03,0.41,0.08c0.28,0.17,0.41,0.42,0.41,0.75v10.11c0,0.17-0.03,0.34-0.08,0.5c-0.11,0.28-0.39,0.41-0.83,0.41H10.74
	c-0.11,0.05-0.22,0.03-0.33-0.08c-0.11-0.11-0.19-0.24-0.25-0.38c-0.06-0.14-0.08-0.38-0.08-0.71v-9.69c-0.06-0.11-0.06-0.25,0-0.42
	c0.11-0.33,0.44-0.5,0.99-0.5h6.96V18.28h-7.3c-0.17,0-0.3-0.03-0.41-0.08c-0.22-0.11-0.33-0.45-0.33-1V7.34
	c0-0.11,0.03-0.25,0.08-0.42C10.19,6.64,10.46,6.51,10.91,6.51z M14.97,16.95v-0.91c0-0.28,0.01-0.57,0.04-0.87
	c0.03-0.3,0.1-0.65,0.21-1.04c0.22-0.77,0.77-1.24,1.66-1.41c0.88-0.17,1.85-0.47,2.9-0.91c0.5-0.17,0.84-0.48,1.04-0.95
	c0.19-0.47,0.29-0.92,0.29-1.37c0-0.55-0.06-1.16-0.17-1.82h-9.7v9.29H14.97z M19.37,29.89v19.4c0.66-0.55,1.27-1.33,1.82-2.32
	c0.44-0.88,0.81-2.07,1.12-3.57c0.3-1.49,0.37-3.48,0.21-5.97c-0.17-2.43-0.37-4.3-0.62-5.6c-0.25-1.3-0.51-2.18-0.79-2.65
	c-0.28-0.47-0.57-0.61-0.87-0.41C19.93,28.96,19.64,29.34,19.37,29.89z M35.45,7.67c-0.22,0.61-0.33,1.24-0.33,1.91
	c0,0.61,0.11,1.31,0.33,2.11c0.22,0.8,0.69,1.7,1.41,2.69c0.72,1.05,1.49,1.66,2.32,1.82c0.83,0.17,1.6,0.14,2.32-0.08
	c0.83-0.22,1.66-0.66,2.49-1.33l-2.74-7.13H35.45z M38.6,38.35l11.44,30.1h1.49c0.05-0.55,0.17-1.3,0.33-2.24
	c0.11-0.77,0.29-1.81,0.54-3.11c0.25-1.3,0.59-2.86,1.04-4.68c0.39-1.82,0.46-3.19,0.21-4.1c-0.25-0.91-0.69-1.7-1.33-2.36
	c-0.64-0.66-1.34-1.34-2.11-2.03c-0.77-0.69-1.49-1.75-2.16-3.19c-0.61-1.38-0.69-2.56-0.25-3.52c0.44-0.97,1.05-1.75,1.82-2.36
	c0.94-0.72,2.07-1.3,3.4-1.74l-1.66-4.64c-0.17,0.17-0.36,0.36-0.58,0.58c-0.17,0.22-0.35,0.47-0.54,0.75
	c-0.19,0.28-0.43,0.58-0.7,0.91c-0.28,0.33-0.54,0.66-0.79,0.99c-0.25,0.33-0.57,0.57-0.95,0.71c-0.39,0.14-0.86,0.11-1.41-0.08
	c-0.55-0.19-1.24-0.68-2.07-1.45c-0.88-0.77-1.67-1.12-2.36-1.04c-0.69,0.08-1.29,0.32-1.78,0.7C39.57,36.97,39.04,37.57,38.6,38.35
	z M57.92,38.18c0.22,0.72,0.52,1.3,0.91,1.74c0.28,0.44,0.66,0.78,1.16,1c0.5,0.22,1.05,0.19,1.66-0.08
	c0.61-0.28,1.29-0.68,2.03-1.2c0.75-0.52,1.45-1.09,2.11-1.7c0.77-0.66,1.55-1.38,2.32-2.16l1.41-3.81
	c-0.5-0.33-0.88-0.77-1.16-1.33c-0.28-0.44-0.5-0.97-0.66-1.58c-0.17-0.61-0.17-1.3,0-2.07c0.28-1.55,0.18-2.61-0.29-3.19
	c-0.47-0.58-0.95-0.92-1.45-1.04h-1.49c-0.22,0-0.47,0.03-0.75,0.08L57.92,38.18z M65.8,17.13c0.05,0.11,0.17,0.22,0.33,0.33
	c0.17,0.11,0.36,0.15,0.58,0.12c0.22-0.03,0.51-0.18,0.87-0.46c0.36-0.28,0.79-0.75,1.28-1.41c0.5-0.66,0.8-1.44,0.91-2.32
	c0.11-0.88,0.11-1.71,0-2.49c-0.11-0.94-0.3-1.88-0.58-2.82L65.8,17.13z M77.58,26.57c-0.06,5.75-0.08,10.92-0.08,15.5v16.25
	c0,0.44-0.14,0.72-0.41,0.83c-0.17,0.06-0.3,0.08-0.41,0.08h-6.55v1.58h2.16c0.61,0,1.3-0.01,2.07-0.04
	c0.77-0.03,1.52-0.04,2.24-0.04c0.66,0,1.41,0.08,2.24,0.25c0.83,0.17,1.62,0.39,2.36,0.66c0.75,0.28,1.38,0.61,1.91,0.99
	c0.52,0.39,0.87,0.8,1.04,1.24c0.28,0.94,0.81,1.67,1.62,2.2c0.8,0.53,2,0.57,3.61,0.12c0.77-0.22,1.34-0.22,1.7,0
	c0.36,0.22,0.59,0.5,0.71,0.83c0.17,0.39,0.19,0.88,0.08,1.49h8.21v-4.39c-0.22,0.16-0.44,0.3-0.66,0.41
	c-0.22,0.11-0.47,0.21-0.75,0.29c-0.28,0.08-0.55,0.18-0.83,0.29c-0.61,0.11-1.18,0.12-1.7,0.04c-0.53-0.08-0.87-0.51-1.04-1.29
	c-0.11-0.39-0.28-0.68-0.5-0.87c-0.22-0.19-0.55-0.37-0.99-0.54c-0.44-0.17-1.01-0.34-1.7-0.54c-0.69-0.19-1.53-0.48-2.53-0.87
	c-0.99-0.33-1.73-0.66-2.2-1c-0.47-0.33-0.75-0.72-0.83-1.16c-0.08-0.44,0-0.95,0.25-1.53c0.25-0.58,0.59-1.29,1.04-2.11
	c0.44-0.83,0.77-1.51,0.99-2.03c0.22-0.52,0.34-1.02,0.37-1.49c0.03-0.47-0.03-1-0.17-1.58c-0.14-0.58-0.35-1.37-0.62-2.36
	c-0.55-1.93-1.05-4.17-1.49-6.72c-0.44-2.54-0.72-5.17-0.83-7.88c-0.06-1.33,0.25-2.68,0.91-4.06c0.66-1.38,1.38-2.63,2.16-3.73
	c0.94-1.33,1.99-2.6,3.15-3.81v-3.73c0-0.44,0.11-0.72,0.33-0.83c0.11-0.05,0.25-0.08,0.41-0.08h2.16
	c-0.11-0.05-0.17-0.25-0.17-0.58c0-0.28,0.01-0.68,0.04-1.2c0.03-0.52,0.15-1.26,0.37-2.2c0.17-0.88,0.51-1.55,1.04-1.99
	c0.52-0.44,1.09-0.77,1.7-1c0.66-0.22,1.38-0.33,2.16-0.33V7.75h-8.96c-0.33,1.33-0.61,2.54-0.83,3.65c-0.28,1-0.53,1.98-0.75,2.94
	c-0.22,0.97-0.44,1.67-0.66,2.11c-0.22,0.44-0.44,0.95-0.66,1.53c-0.22,0.58-0.53,1.13-0.91,1.66c-0.39,0.53-0.9,1-1.53,1.41
	c-0.64,0.41-1.45,0.65-2.45,0.71c-1.05,0.11-1.95,0.41-2.69,0.91c-0.75,0.5-1.34,1.05-1.78,1.66C78.35,25,77.91,25.74,77.58,26.57z"
	/>
<path d="M138.52,5.59c1.71-0.11,3.48-0.05,5.31,0.17c1.55,0.17,3.28,0.46,5.18,0.87c1.91,0.41,3.8,1.04,5.68,1.87
	c1.82,0.83,3.45,1.7,4.89,2.61c1.44,0.91,2.71,1.87,3.81,2.86c1.11,1,2.11,2.06,3.03,3.19c0.91,1.13,1.75,2.31,2.53,3.52
	c1.6,2.49,2.72,4.88,3.36,7.17c0.64,2.3,1.09,4.66,1.37,7.09c0.28,2.49,0.19,5.33-0.25,8.54c-0.44,3.21-1.47,6.38-3.07,9.54
	c-1.6,3.15-3.3,5.57-5.1,7.26c-1.8,1.69-3.25,2.94-4.35,3.77c-1.16,0.88-2.72,1.85-4.68,2.9c-1.96,1.05-4.44,1.88-7.42,2.49
	c-2.98,0.66-6.23,1.04-9.74,1.12c-3.51,0.08-7.12-0.29-10.82-1.12c-1.88-0.39-3.62-0.94-5.22-1.66c-1.6-0.72-3.03-1.45-4.27-2.2
	c-1.24-0.75-2.29-1.46-3.15-2.16c-0.86-0.69-1.48-1.26-1.87-1.7c-0.39-0.39-0.87-0.91-1.45-1.58c-0.58-0.66-1.19-1.41-1.82-2.24
	c-0.64-0.83-1.26-1.7-1.87-2.61c-0.61-0.91-1.11-1.81-1.49-2.69c-0.88-1.82-1.7-4.09-2.45-6.8c-0.75-2.71-1.04-5.8-0.87-9.29
	c0.17-3.48,0.86-6.92,2.07-10.32c1.22-3.4,3.23-6.7,6.05-9.91c2.87-3.26,6.54-5.89,10.99-7.88C127.34,6.42,132.55,5.48,138.52,5.59z
	 M108.01,24.42c0.11-0.05,0.47-0.11,1.08-0.16c0.61-0.06,1.3-0.06,2.07,0c0.77,0.06,1.53,0.19,2.28,0.41c0.75,0.22,1.31,0.55,1.7,1
	c0.72,0.94,1.02,2.14,0.91,3.61c-0.11,1.47-0.69,2.75-1.74,3.86c-0.5,0.55-0.97,1.23-1.41,2.03c-0.44,0.8-0.8,1.62-1.08,2.45
	c-0.28,0.83-0.51,1.62-0.7,2.36c-0.19,0.75-0.29,1.29-0.29,1.62c-0.06,0.33,0.07,1.02,0.37,2.07c0.3,1.05,0.69,2.23,1.16,3.52
	c0.47,1.3,0.97,2.6,1.49,3.9c0.52,1.3,0.98,2.39,1.37,3.28c0.44,0.88,0.61,1.67,0.5,2.36c-0.11,0.69-0.3,1.29-0.58,1.78
	c-0.33,0.61-0.75,1.11-1.24,1.49c0.5,0.66,1.11,1.3,1.82,1.91c0.61,0.61,1.38,1.24,2.32,1.91c0.94,0.66,2.04,1.3,3.32,1.91
	c1.22,0.61,2.53,1.12,3.94,1.53c1.41,0.41,2.72,0.76,3.94,1.04c1.44,0.28,2.85,0.53,4.23,0.75l0.33-0.33
	c0.11-0.11,0.23-0.28,0.37-0.5c0.14-0.22,0.29-0.5,0.46-0.83c0.33-0.61,0.97-1.19,1.91-1.74c0.94-0.55,1.91-1.44,2.9-2.65
	c0.5-0.61,0.8-1.13,0.91-1.58c0.11-0.44,0.14-0.83,0.08-1.16c-0.06-0.39-0.19-0.75-0.41-1.08c-0.28,0.06-0.53,0.08-0.75,0.08
	c-0.22,0-0.47,0-0.75,0c-0.28,0-0.55-0.03-0.83-0.08c-0.5,0-1.02-0.05-1.58-0.17c-0.22-0.05-0.44-0.08-0.66-0.08
	c-0.22,0.5-0.44,1.02-0.66,1.58c-0.22,0.44-0.44,0.93-0.66,1.45c-0.22,0.53-0.47,1.04-0.75,1.53c-0.5,0.94-1.34,1.6-2.53,1.99
	c-1.19,0.39-2.23,0.41-3.11,0.08c-0.83-0.28-1.6-0.94-2.32-1.99c-0.72-1.05-0.97-2.38-0.75-3.98c0.11-0.77,0.19-1.3,0.25-1.58
	c0.05-0.28-0.03-0.52-0.25-0.75c-0.22-0.22-0.64-0.54-1.24-0.95c-0.61-0.41-1.52-1.12-2.74-2.11c-1.22-1-2.17-1.93-2.86-2.82
	c-0.69-0.88-1.19-1.77-1.49-2.65c-0.3-0.88-0.46-1.77-0.46-2.65c0-0.88,0.08-1.82,0.25-2.82c0.17-1,0.52-1.63,1.08-1.91
	c0.55-0.28,1.13-0.39,1.74-0.33c0.66,0.06,1.44,0.28,2.32,0.66c-0.06-0.61-0.08-1.27-0.08-1.99c0-0.61-0.01-1.31-0.04-2.11
	c-0.03-0.8,0.01-1.62,0.12-2.45c0.05-0.77,0.15-1.55,0.29-2.32c0.14-0.77,0.26-1.46,0.37-2.07c0.17-0.66,0.33-1.3,0.5-1.91
	c-0.44-0.05-0.88-0.33-1.33-0.83c-0.39-0.39-0.79-1-1.2-1.82c-0.41-0.83-0.82-2.02-1.2-3.57c-0.44-1.55-1.05-2.63-1.82-3.23
	c-0.77-0.61-1.55-0.97-2.32-1.08c-0.94-0.17-1.91-0.08-2.9,0.25c-0.22,0.28-0.44,0.55-0.66,0.83c-0.22,0.28-0.44,0.58-0.66,0.91
	c-0.22,0.33-0.44,0.66-0.66,1c-0.22,0.33-0.43,0.69-0.62,1.08c-0.19,0.39-0.37,0.72-0.54,1C108.28,23.73,108.12,24.09,108.01,24.42z
	 M138.93,18.11c-3.32,0-6.04,0.71-8.17,2.11c-2.13,1.41-3.81,3.11-5.06,5.1c-1.24,1.99-2.1,4.08-2.57,6.26
	c-0.47,2.18-0.73,4.05-0.79,5.6c0,1.6,0.11,3.28,0.33,5.02c0.22,1.74,0.64,3.46,1.24,5.14c0.61,1.69,1.45,3.26,2.53,4.73
	c1.08,1.47,2.47,2.7,4.19,3.69c3.43,1.94,6.66,2.65,9.7,2.16c3.04-0.5,5.75-1.6,8.13-3.32c1.16-0.83,2.29-2.13,3.4-3.9
	c1.11-1.77,1.98-3.83,2.61-6.18c0.64-2.35,0.93-4.89,0.87-7.63c-0.06-2.74-0.64-5.49-1.74-8.25c-1.11-2.76-2.5-4.88-4.19-6.34
	c-1.69-1.46-3.3-2.5-4.85-3.11C142.75,18.48,140.87,18.11,138.93,18.11z M142.67,7c1.05,0.55,1.99,1.13,2.82,1.74
	c0.72,0.55,1.38,1.19,1.99,1.91c0.61,0.72,0.97,1.52,1.08,2.4c0.05,0.88-0.21,1.6-0.79,2.16c-0.58,0.55-1.26,0.97-2.03,1.24
	c-0.88,0.33-1.88,0.58-2.98,0.75c0.72,0.28,1.46,0.58,2.24,0.91c0.61,0.28,1.3,0.62,2.07,1.04c0.77,0.41,1.46,0.84,2.07,1.29
	c0.61,0.44,1.19,0.97,1.74,1.58c0.55,0.61,1.05,1.19,1.49,1.74c0.5,0.61,0.94,1.24,1.33,1.91c0.83-0.28,1.71-0.52,2.65-0.75
	c0.77-0.17,1.63-0.32,2.57-0.46c0.94-0.14,1.88-0.21,2.82-0.21c1.88,0.11,3.11,0.73,3.69,1.87c0.58,1.13,0.76,2.5,0.54,4.1
	c-0.11,0.77-0.08,1.66,0.08,2.65c0.17,0.99,0.37,1.96,0.62,2.9c0.25,0.94,0.51,1.83,0.79,2.65c0.28,0.83,0.44,1.49,0.5,1.99
	c0.05,0.44,0.29,0.97,0.7,1.58c0.41,0.61,0.84,1.22,1.29,1.82c0.55,0.66,1.13,1.35,1.74,2.07c0.22-1,0.41-2.18,0.58-3.57
	c0.11-1.16,0.18-2.58,0.21-4.27c0.03-1.69-0.1-3.61-0.37-5.76c-0.17-1.16-0.4-2.25-0.7-3.28c-0.3-1.02-0.62-1.92-0.95-2.69
	c-0.39-0.94-0.77-1.8-1.16-2.57c-0.11,0.06-0.25,0.08-0.41,0.08c-0.28,0.11-0.72,0.11-1.33,0c-0.33-0.05-0.55-0.15-0.66-0.29
	c-0.11-0.14-0.21-0.32-0.29-0.54c-0.08-0.22-0.21-0.5-0.37-0.83c-0.17-0.33-0.44-0.75-0.83-1.24c-0.39-0.44-0.76-0.73-1.12-0.87
	c-0.36-0.14-0.84-0.26-1.45-0.37c-0.61-0.11-1.37-0.29-2.28-0.54c-0.91-0.25-2.09-0.7-3.52-1.37c-1.44-0.66-2.4-1.45-2.9-2.36
	c-0.5-0.91-0.77-1.81-0.83-2.69c-0.06-1,0.14-2.04,0.58-3.15c-0.61-0.28-1.22-0.52-1.82-0.75c-0.55-0.22-1.13-0.41-1.74-0.58
	c-0.61-0.17-1.19-0.3-1.74-0.41c-0.55-0.11-1.16-0.21-1.82-0.29c-0.66-0.08-1.3-0.18-1.91-0.29C144.1,7.14,143.38,7.06,142.67,7z
	 M154.27,49.21c-0.39,0.61-0.75,1.22-1.08,1.82c-0.66,1.11-1.35,2.07-2.07,2.9c-0.39,0.44-0.82,0.84-1.29,1.2
	c-0.47,0.36-0.93,0.68-1.37,0.95c-0.55,0.33-1.08,0.66-1.58,1c0.17,0.66,0.41,1.3,0.75,1.91c0.28,0.55,0.65,1.11,1.12,1.66
	c0.47,0.55,1.06,1.05,1.78,1.49c0.72,0.44,0.95,1.01,0.7,1.7c-0.25,0.69-0.68,1.4-1.29,2.11c-0.66,0.83-1.55,1.69-2.65,2.57
	c0.33-0.06,0.72-0.14,1.16-0.25c0.39-0.11,0.81-0.21,1.29-0.29c0.47-0.08,1.01-0.23,1.62-0.46c0.61-0.17,1.19-0.36,1.74-0.58
	c0.55-0.22,1.05-0.44,1.49-0.66c0.55-0.22,1.05-0.5,1.49-0.83c-0.39-0.17-0.69-0.36-0.91-0.58c-0.61-0.39-0.94-0.91-0.99-1.58
	c-0.11-0.72,0.04-1.53,0.46-2.45c0.41-0.91,0.76-2.17,1.04-3.77c0.11-0.83,0.11-1.7,0-2.61c-0.11-0.91-0.28-1.75-0.5-2.53
	C154.97,51.01,154.66,50.09,154.27,49.21z"/>
<path d="M210.94,70.52c-1.71,0.11-3.48,0.05-5.31-0.17c-1.55-0.17-3.28-0.46-5.18-0.87c-1.91-0.41-3.8-1.04-5.68-1.87
	c-1.82-0.83-3.45-1.7-4.89-2.61c-1.44-0.91-2.71-1.87-3.81-2.86c-1.11-1-2.11-2.06-3.03-3.19c-0.91-1.13-1.75-2.31-2.53-3.52
	c-1.6-2.49-2.72-4.88-3.36-7.17c-0.64-2.3-1.09-4.66-1.37-7.09c-0.28-2.49-0.19-5.33,0.25-8.54c0.44-3.21,1.47-6.38,3.07-9.54
	c1.6-3.15,3.3-5.57,5.1-7.26c1.8-1.69,3.25-2.94,4.35-3.77c1.16-0.88,2.72-1.85,4.68-2.9c1.96-1.05,4.44-1.88,7.42-2.49
	c2.98-0.66,6.23-1.04,9.74-1.12c3.51-0.08,7.12,0.29,10.82,1.12c1.88,0.39,3.62,0.94,5.22,1.66c1.6,0.72,3.03,1.45,4.27,2.2
	c1.24,0.75,2.29,1.46,3.15,2.16c0.86,0.69,1.48,1.26,1.87,1.7c0.39,0.39,0.87,0.91,1.45,1.58c0.58,0.66,1.19,1.41,1.82,2.24
	c0.64,0.83,1.26,1.7,1.87,2.61c0.61,0.91,1.11,1.81,1.49,2.69c0.88,1.82,1.7,4.09,2.45,6.8c0.75,2.71,1.04,5.8,0.87,9.29
	s-0.86,6.92-2.07,10.32c-1.22,3.4-3.23,6.7-6.05,9.91c-2.87,3.26-6.54,5.89-10.99,7.88C222.12,69.69,216.91,70.63,210.94,70.52z
	 M241.45,51.7c-0.11,0.05-0.47,0.11-1.08,0.16c-0.61,0.06-1.3,0.06-2.07,0c-0.77-0.06-1.53-0.19-2.28-0.41
	c-0.75-0.22-1.31-0.55-1.7-1c-0.72-0.94-1.02-2.14-0.91-3.61c0.11-1.47,0.69-2.75,1.74-3.86c0.5-0.55,0.97-1.23,1.41-2.03
	c0.44-0.8,0.8-1.62,1.08-2.45c0.28-0.83,0.51-1.62,0.7-2.36c0.19-0.75,0.29-1.29,0.29-1.62c0.06-0.33-0.07-1.02-0.37-2.07
	c-0.3-1.05-0.69-2.23-1.16-3.52c-0.47-1.3-0.97-2.6-1.49-3.9c-0.52-1.3-0.98-2.39-1.37-3.28c-0.44-0.88-0.61-1.67-0.5-2.36
	c0.11-0.69,0.3-1.29,0.58-1.78c0.33-0.61,0.75-1.11,1.24-1.49c-0.5-0.66-1.11-1.3-1.82-1.91c-0.61-0.61-1.38-1.24-2.32-1.91
	c-0.94-0.66-2.04-1.3-3.32-1.91c-1.22-0.61-2.53-1.12-3.94-1.53c-1.41-0.41-2.72-0.76-3.94-1.04c-1.44-0.28-2.85-0.53-4.23-0.75
	l-0.33,0.33c-0.11,0.11-0.23,0.28-0.37,0.5c-0.14,0.22-0.29,0.5-0.46,0.83c-0.33,0.61-0.97,1.19-1.91,1.74
	c-0.94,0.55-1.91,1.44-2.9,2.65c-0.5,0.61-0.8,1.13-0.91,1.58c-0.11,0.44-0.14,0.83-0.08,1.16c0.06,0.39,0.19,0.75,0.41,1.08
	c0.28-0.06,0.53-0.08,0.75-0.08c0.22,0,0.47,0,0.75,0c0.28,0,0.55,0.03,0.83,0.08c0.5,0,1.02,0.05,1.58,0.17
	c0.22,0.05,0.44,0.08,0.66,0.08c0.22-0.5,0.44-1.02,0.66-1.58c0.22-0.44,0.44-0.93,0.66-1.45c0.22-0.53,0.47-1.04,0.75-1.53
	c0.5-0.94,1.34-1.6,2.53-1.99c1.19-0.39,2.23-0.41,3.11-0.08c0.83,0.28,1.6,0.94,2.32,1.99c0.72,1.05,0.97,2.38,0.75,3.98
	c-0.11,0.77-0.19,1.3-0.25,1.58c-0.05,0.28,0.03,0.52,0.25,0.75c0.22,0.22,0.64,0.54,1.24,0.95c0.61,0.41,1.52,1.12,2.74,2.11
	c1.22,1,2.17,1.93,2.86,2.82c0.69,0.88,1.19,1.77,1.49,2.65c0.3,0.88,0.46,1.77,0.46,2.65c0,0.88-0.08,1.82-0.25,2.82
	c-0.17,1-0.52,1.63-1.08,1.91c-0.55,0.28-1.13,0.39-1.74,0.33c-0.66-0.06-1.44-0.28-2.32-0.66c0.06,0.61,0.08,1.27,0.08,1.99
	c0,0.61,0.01,1.31,0.04,2.11c0.03,0.8-0.01,1.62-0.12,2.45c-0.05,0.77-0.15,1.55-0.29,2.32c-0.14,0.77-0.26,1.46-0.37,2.07
	c-0.17,0.66-0.33,1.3-0.5,1.91c0.44,0.05,0.88,0.33,1.33,0.83c0.39,0.39,0.79,1,1.2,1.82c0.41,0.83,0.82,2.02,1.2,3.57
	c0.44,1.55,1.05,2.63,1.82,3.23c0.77,0.61,1.55,0.97,2.32,1.08c0.94,0.17,1.91,0.08,2.9-0.25c0.22-0.28,0.44-0.55,0.66-0.83
	c0.22-0.28,0.44-0.58,0.66-0.91c0.22-0.33,0.44-0.66,0.66-1c0.22-0.33,0.43-0.69,0.62-1.08c0.19-0.39,0.37-0.72,0.54-1
	C241.18,52.39,241.34,52.03,241.45,51.7z M210.52,58c3.32,0,6.04-0.71,8.17-2.11c2.13-1.41,3.81-3.11,5.06-5.1s2.1-4.08,2.57-6.26
	c0.47-2.18,0.73-4.05,0.79-5.6c0-1.6-0.11-3.28-0.33-5.02c-0.22-1.74-0.64-3.46-1.24-5.14c-0.61-1.69-1.45-3.26-2.53-4.73
	c-1.08-1.47-2.47-2.7-4.19-3.69c-3.43-1.94-6.66-2.65-9.7-2.16c-3.04,0.5-5.75,1.6-8.13,3.32c-1.16,0.83-2.29,2.13-3.4,3.9
	c-1.11,1.77-1.98,3.83-2.61,6.18c-0.64,2.35-0.93,4.89-0.87,7.63c0.06,2.74,0.64,5.49,1.74,8.25c1.11,2.76,2.5,4.88,4.19,6.34
	c1.69,1.46,3.3,2.5,4.85,3.11C206.71,57.64,208.59,58,210.52,58z M206.79,69.11c-1.05-0.55-1.99-1.13-2.82-1.74
	c-0.72-0.55-1.38-1.19-1.99-1.91c-0.61-0.72-0.97-1.52-1.08-2.4c-0.05-0.88,0.21-1.6,0.79-2.16c0.58-0.55,1.26-0.97,2.03-1.24
	c0.88-0.33,1.88-0.58,2.98-0.75c-0.72-0.28-1.46-0.58-2.24-0.91c-0.61-0.28-1.3-0.62-2.07-1.04c-0.77-0.41-1.46-0.84-2.07-1.29
	c-0.61-0.44-1.19-0.97-1.74-1.58c-0.55-0.61-1.05-1.19-1.49-1.74c-0.5-0.61-0.94-1.24-1.33-1.91c-0.83,0.28-1.71,0.52-2.65,0.75
	c-0.77,0.17-1.63,0.32-2.57,0.46c-0.94,0.14-1.88,0.21-2.82,0.21c-1.88-0.11-3.11-0.73-3.69-1.87c-0.58-1.13-0.76-2.5-0.54-4.1
	c0.11-0.77,0.08-1.66-0.08-2.65c-0.17-0.99-0.37-1.96-0.62-2.9c-0.25-0.94-0.51-1.83-0.79-2.65c-0.28-0.83-0.44-1.49-0.5-1.99
	c-0.05-0.44-0.29-0.97-0.7-1.58c-0.41-0.61-0.84-1.22-1.29-1.82c-0.55-0.66-1.13-1.35-1.74-2.07c-0.22,1-0.41,2.18-0.58,3.57
	c-0.11,1.16-0.18,2.58-0.21,4.27c-0.03,1.69,0.1,3.61,0.37,5.76c0.17,1.16,0.4,2.25,0.7,3.28c0.3,1.02,0.62,1.92,0.95,2.69
	c0.39,0.94,0.77,1.8,1.16,2.57c0.11-0.06,0.25-0.08,0.41-0.08c0.28-0.11,0.72-0.11,1.33,0c0.33,0.05,0.55,0.15,0.66,0.29
	c0.11,0.14,0.21,0.32,0.29,0.54c0.08,0.22,0.21,0.5,0.37,0.83c0.17,0.33,0.44,0.75,0.83,1.24c0.39,0.44,0.76,0.73,1.12,0.87
	c0.36,0.14,0.84,0.26,1.45,0.37c0.61,0.11,1.37,0.29,2.28,0.54c0.91,0.25,2.09,0.7,3.52,1.37c1.44,0.66,2.4,1.45,2.9,2.36
	c0.5,0.91,0.77,1.81,0.83,2.69c0.06,1-0.14,2.04-0.58,3.15c0.61,0.28,1.22,0.52,1.82,0.75c0.55,0.22,1.13,0.41,1.74,0.58
	c0.61,0.17,1.19,0.3,1.74,0.41c0.55,0.11,1.16,0.21,1.82,0.29c0.66,0.08,1.3,0.18,1.91,0.29C205.36,68.97,206.08,69.05,206.79,69.11
	z M195.18,26.9c0.39-0.61,0.75-1.22,1.08-1.82c0.66-1.11,1.35-2.07,2.07-2.9c0.39-0.44,0.82-0.84,1.29-1.2
	c0.47-0.36,0.93-0.68,1.37-0.95c0.55-0.33,1.08-0.66,1.58-1c-0.17-0.66-0.41-1.3-0.75-1.91c-0.28-0.55-0.65-1.11-1.12-1.66
	c-0.47-0.55-1.06-1.05-1.78-1.49c-0.72-0.44-0.95-1.01-0.7-1.7c0.25-0.69,0.68-1.4,1.29-2.11c0.66-0.83,1.55-1.69,2.65-2.57
	c-0.33,0.06-0.72,0.14-1.16,0.25c-0.39,0.11-0.81,0.21-1.29,0.29c-0.47,0.08-1.01,0.23-1.62,0.46c-0.61,0.17-1.19,0.36-1.74,0.58
	c-0.55,0.22-1.05,0.44-1.49,0.66c-0.55,0.22-1.05,0.5-1.49,0.83c0.39,0.17,0.69,0.36,0.91,0.58c0.61,0.39,0.94,0.91,0.99,1.58
	c0.11,0.72-0.04,1.53-0.46,2.45c-0.41,0.91-0.76,2.17-1.04,3.77c-0.11,0.83-0.11,1.7,0,2.61c0.11,0.91,0.28,1.75,0.5,2.53
	C194.49,25.11,194.8,26.02,195.18,26.9z"/>
<path d="M278.98,23.15v-1.71c-0.03-0.06-0.03-0.13,0-0.22c0.06-0.15,0.21-0.22,0.45-0.22h5.39c0.06,0,0.13,0.01,0.22,0.04
	c0.18,0.06,0.27,0.19,0.27,0.4v9.89c0.03,0.09,0.03,0.18,0,0.27c-0.06,0.18-0.2,0.27-0.4,0.27h-5.57c-0.06,0-0.12-0.03-0.18-0.09
	c-0.12-0.06-0.18-0.18-0.18-0.36s-0.07-0.52-0.2-1.03c-0.13-0.51-0.38-1.05-0.74-1.62c-0.36-0.54-0.79-0.95-1.3-1.24
	c-0.51-0.28-0.9-0.46-1.17-0.52c-0.15-0.03-0.37-0.06-0.67-0.09c-0.3-0.03-0.63-0.01-0.99,0.04c-0.36,0.06-0.72,0.17-1.08,0.34
	c-0.36,0.16-0.67,0.43-0.94,0.79c-0.27,0.36-0.4,0.72-0.38,1.08c0.01,0.36,0.09,0.7,0.22,1.01c0.13,0.31,0.29,0.58,0.47,0.79
	c0.18,0.21,0.31,0.33,0.4,0.36c0.15,0.12,0.43,0.32,0.85,0.61c0.42,0.29,1.05,0.62,1.89,1.01c0.42,0.18,0.94,0.41,1.57,0.7
	c0.63,0.29,1.27,0.58,1.91,0.88c0.64,0.3,1.24,0.58,1.77,0.85c0.54,0.27,0.93,0.49,1.17,0.67c0.24,0.18,0.55,0.4,0.92,0.67
	c0.37,0.27,0.76,0.59,1.17,0.97c0.4,0.38,0.8,0.81,1.19,1.3c0.39,0.49,0.72,1.06,0.99,1.68c0.54,1.32,0.85,2.54,0.92,3.66
	c0.07,1.12,0.01,2.4-0.2,3.84c-0.24,1.41-0.8,2.63-1.68,3.66c-0.88,1.03-1.84,1.85-2.85,2.45c-0.51,0.3-1.03,0.54-1.57,0.72
	c-0.54,0.18-1.06,0.31-1.55,0.4c-0.49,0.09-0.94,0.16-1.35,0.2c-0.4,0.04-0.7,0.07-0.88,0.07c-0.21,0-0.49-0.02-0.85-0.07
	c-0.36-0.04-0.75-0.11-1.17-0.2c-0.42-0.09-0.83-0.2-1.24-0.31c-0.4-0.12-0.74-0.27-1.01-0.45c-0.3-0.15-0.57-0.33-0.81-0.54
	c-0.24-0.21-0.46-0.4-0.67-0.58c-0.24-0.21-0.46-0.4-0.67-0.58v1.66c0.03,0.12,0.03,0.22,0,0.31c-0.06,0.18-0.22,0.27-0.49,0.27
	h-5.48c-0.09,0.03-0.16,0.03-0.22,0c-0.12-0.06-0.18-0.22-0.18-0.49V43.55c0-0.06,0.01-0.13,0.04-0.22
	c0.06-0.18,0.21-0.27,0.45-0.27h5.39c0.06,0,0.13,0.02,0.22,0.04c0.18,0.06,0.27,0.21,0.27,0.45c0,0.15,0.01,0.41,0.04,0.79
	c0.03,0.37,0.11,0.79,0.25,1.26s0.34,0.93,0.61,1.39c0.27,0.47,0.63,0.86,1.08,1.19c0.93,0.66,1.81,1,2.65,1.03
	c0.84,0.03,1.6-0.21,2.29-0.72c0.33-0.27,0.58-0.55,0.74-0.83c0.16-0.28,0.28-0.56,0.36-0.83c0.07-0.27,0.11-0.51,0.11-0.72
	c0-0.21,0-0.34,0-0.4c0-0.06-0.01-0.19-0.02-0.38c-0.02-0.19-0.09-0.44-0.22-0.74c-0.13-0.3-0.37-0.63-0.72-0.99
	c-0.34-0.36-0.83-0.73-1.46-1.12c-0.63-0.36-1.3-0.72-2-1.08c-0.7-0.36-1.4-0.72-2.09-1.08c-0.69-0.36-1.35-0.7-1.98-1.03
	c-0.63-0.33-1.18-0.66-1.66-0.99c-0.48-0.33-0.97-0.7-1.48-1.1c-0.51-0.4-0.99-0.89-1.44-1.46c-0.45-0.57-0.83-1.24-1.15-2.02
	c-0.31-0.78-0.5-1.71-0.56-2.79c-0.06-1.08,0-2.05,0.18-2.92c0.18-0.87,0.42-1.62,0.72-2.27c0.3-0.64,0.62-1.18,0.97-1.59
	c0.34-0.42,0.65-0.73,0.92-0.94c0.27-0.21,0.6-0.46,0.99-0.74c0.39-0.28,0.85-0.56,1.39-0.83s1.17-0.5,1.89-0.7
	c0.72-0.19,1.56-0.29,2.52-0.29c0.96,0,1.78,0.13,2.47,0.38c0.69,0.25,1.27,0.55,1.75,0.88C278.13,22.25,278.59,22.67,278.98,23.15z
	 M284.15,51.9c0.24-0.24,0.46-0.52,0.67-0.85c0.18-0.3,0.37-0.66,0.56-1.08c0.19-0.42,0.37-0.9,0.52-1.44
	c0.15-0.51,0.25-0.97,0.29-1.39c0.04-0.42,0.08-0.76,0.11-1.03c0.03-0.33,0.03-0.61,0-0.85c-0.69-0.03-1.3-0.13-1.84-0.31
	c-0.48-0.15-0.92-0.39-1.33-0.72c-0.4-0.33-0.64-0.79-0.7-1.39c-0.06-0.57-0.12-1.04-0.18-1.42c-0.06-0.37-0.17-0.68-0.31-0.92
	c-0.15-0.24-0.35-0.43-0.61-0.58c-0.25-0.15-0.61-0.3-1.06-0.45c-0.42-0.15-0.91-0.33-1.48-0.54c-0.57-0.21-1.12-0.46-1.64-0.74
	c-0.52-0.28-0.99-0.61-1.39-0.97c-0.4-0.36-0.65-0.76-0.74-1.21s-0.17-0.78-0.22-0.99c-0.06-0.21-0.11-0.37-0.13-0.47
	c-0.03-0.1-0.04-0.18-0.04-0.22c0-0.04,0.03-0.13,0.09-0.25c0.06-0.12,0.1-0.21,0.13-0.27c0.03-0.06,0.06-0.12,0.09-0.18
	c0.03-0.06,0.06-0.1,0.09-0.13c-0.54-0.24-1.05-0.49-1.53-0.76c-0.42-0.24-0.83-0.5-1.24-0.79c-0.4-0.28-0.71-0.59-0.92-0.92
	c-0.42-0.66-0.57-1.39-0.45-2.18c0.12-0.79,0.52-1.43,1.21-1.91c0.36-0.21,0.76-0.37,1.19-0.47c0.43-0.1,0.89-0.15,1.37-0.13
	c0.48,0.01,0.94,0.09,1.37,0.22c0.43,0.13,0.83,0.32,1.19,0.56c0.33,0.24,0.59,0.45,0.79,0.63c0.19,0.18,0.34,0.33,0.43,0.45
	c0.12,0.12,0.19,0.24,0.22,0.36c0.15-0.03,0.31-0.06,0.49-0.09c0.15-0.03,0.33-0.04,0.54-0.04c0.21,0,0.43,0,0.67,0
	c0.51,0.06,0.83,0.16,0.97,0.29c0.13,0.13,0.23,0.4,0.29,0.79c0.03,0.21,0.07,0.41,0.13,0.61c0.06,0.2,0.12,0.37,0.18,0.52
	c0.09,0.18,0.18,0.37,0.27,0.58h2.43v-5.35c-0.27,0.24-0.54,0.45-0.81,0.63c-0.24,0.15-0.49,0.28-0.74,0.38
	c-0.25,0.11-0.49,0.11-0.7,0.02c-0.21-0.06-0.33-0.22-0.36-0.47c-0.03-0.25-0.08-0.51-0.13-0.76c-0.06-0.25-0.17-0.47-0.34-0.65
	c-0.17-0.18-0.49-0.24-0.97-0.18c-0.96,0.15-1.78,0.27-2.47,0.36c-0.69,0.09-1.29-0.07-1.8-0.49c-0.51-0.42-0.87-0.76-1.08-1.01
	c-0.21-0.25-0.27-0.59-0.18-1.01c0.06-0.18,0.1-0.34,0.11-0.47c0.01-0.13,0.05-0.25,0.11-0.34c0.03-0.12,0.07-0.19,0.13-0.22
	l-0.67-0.13c-0.24-0.06-0.52-0.1-0.85-0.13c-0.33-0.03-0.7-0.04-1.12-0.04c-0.42,0-0.78,0.02-1.08,0.07
	c-0.3,0.04-0.54,0.1-0.72,0.16c-0.21,0.06-0.39,0.12-0.54,0.18c0.21,0.27,0.36,0.57,0.45,0.9c0.06,0.33,0.07,0.72,0.02,1.17
	c-0.04,0.45-0.23,0.97-0.56,1.57c-0.33,0.6-0.73,1.14-1.19,1.62c-0.46,0.48-0.88,0.94-1.24,1.37c-0.36,0.43-0.61,0.86-0.76,1.28
	c-0.15,0.42-0.06,0.87,0.27,1.35c0.33,0.48,0.69,0.9,1.08,1.26c0.39,0.36,0.76,0.71,1.1,1.06c0.34,0.34,0.61,0.7,0.81,1.08
	c0.19,0.37,0.28,0.79,0.25,1.24c-0.12,0.9-0.28,1.6-0.49,2.11c-0.12,0.3-0.22,0.54-0.31,0.72l5.35,2.7
	c0.48-0.12,0.94-0.19,1.39-0.22c0.39-0.03,0.79-0.01,1.21,0.07c0.42,0.08,0.79,0.25,1.12,0.52c0.3,0.27,0.57,0.54,0.81,0.81
	c0.24,0.27,0.48,0.52,0.72,0.76c0.24,0.24,0.49,0.46,0.76,0.65c0.27,0.2,0.6,0.38,0.99,0.56c0.36,0.18,0.75,0.37,1.17,0.56
	c0.42,0.2,0.79,0.43,1.12,0.7c0.33,0.27,0.58,0.59,0.76,0.97c0.18,0.37,0.24,0.82,0.18,1.33c-0.15,1.05-0.34,1.93-0.58,2.63
	C284.63,51.15,284.39,51.63,284.15,51.9z M268.29,43.73c0.15,0.24,0.28,0.45,0.4,0.63c0.21,0.33,0.45,0.66,0.72,0.99
	c0.09,0.15,0.16,0.35,0.2,0.61c0.04,0.25,0.07,0.53,0.09,0.83c0.01,0.3,0.02,0.6,0.02,0.9c0,0.3,0,0.54,0,0.72
	c0.03,0.39,0.07,0.75,0.11,1.08c0.04,0.33,0.34,0.58,0.88,0.76c0.24,0.09,0.37,0.24,0.4,0.45c0.03,0.21,0.01,0.43-0.04,0.67
	c-0.09,0.27-0.22,0.54-0.4,0.81c0.09,0.15,0.21,0.3,0.36,0.45c0.15,0.15,0.33,0.32,0.54,0.52c0.21,0.2,0.48,0.4,0.81,0.61
	c0.33,0.24,0.67,0.43,1.01,0.58c0.34,0.15,0.67,0.25,0.97,0.31c0.33,0.12,0.67,0.18,1.03,0.18c-0.21-0.21-0.42-0.45-0.63-0.72
	c-0.18-0.24-0.37-0.5-0.56-0.79c-0.2-0.28-0.35-0.59-0.47-0.92c-0.12-0.33-0.19-0.66-0.2-0.99c-0.02-0.33-0.01-0.63,0.02-0.9
	c0.03-0.33,0.09-0.63,0.18-0.9c-0.27-0.09-0.54-0.19-0.81-0.31c-0.24-0.12-0.5-0.27-0.79-0.45c-0.29-0.18-0.56-0.42-0.83-0.72
	c-0.36-0.39-0.64-0.84-0.85-1.35c-0.21-0.51-0.36-0.99-0.45-1.44c-0.12-0.54-0.18-1.08-0.18-1.62H268.29z M275.21,49.88
	c0,0.06,0.11,0.2,0.34,0.4c0.22,0.21,0.52,0.37,0.88,0.47c0.36,0.11,0.78,0.1,1.26-0.02c0.48-0.12,1-0.48,1.57-1.08
	c0.57-0.6,0.87-1.23,0.9-1.89c0.03-0.66-0.06-1.27-0.27-1.84c-0.24-0.66-0.6-1.3-1.08-1.93c0.21,0.36,0.34,0.76,0.4,1.21
	c0.06,0.39,0.04,0.84-0.04,1.35c-0.09,0.51-0.31,1.08-0.67,1.71c-0.27,0.42-0.59,0.74-0.97,0.97c-0.38,0.22-0.73,0.38-1.06,0.47
	C276.08,49.82,275.66,49.88,275.21,49.88z"/>
<path d="M289.27,54.69v-5.44c0-0.06,0.01-0.13,0.04-0.22c0.06-0.15,0.19-0.22,0.4-0.22h4.58V27.24h-4.67
	c-0.09,0.03-0.17,0.03-0.22,0c-0.12-0.06-0.18-0.19-0.18-0.4v-5.53l0.09-0.18c0.06-0.15,0.16-0.22,0.31-0.22h18.69
	c0.06,0,0.13,0.02,0.22,0.04c0.18,0.06,0.27,0.21,0.27,0.45v5.3c0,0.09-0.02,0.18-0.04,0.27c-0.06,0.18-0.21,0.27-0.45,0.27h-4.63
	V48.8h4.63c0.09-0.03,0.18-0.03,0.27,0c0.18,0.06,0.27,0.24,0.27,0.54v5.35c0,0.09-0.02,0.18-0.04,0.27
	c-0.06,0.15-0.22,0.22-0.49,0.22h-18.6c-0.09,0-0.17-0.01-0.22-0.04C289.35,55.08,289.27,54.93,289.27,54.69z M292.14,26.61
	c-0.18-0.36-0.3-0.72-0.36-1.08c-0.06-0.33-0.04-0.67,0.04-1.01c0.09-0.34,0.33-0.65,0.72-0.92c0.36-0.27,0.71-0.53,1.06-0.79
	c0.34-0.25,0.65-0.47,0.92-0.65c0.33-0.21,0.64-0.4,0.94-0.58h-5.53v4.99L292.14,26.61z M289.94,49.52v5.03h2.79
	c0.66-0.24,1.26-0.54,1.8-0.9c0.45-0.33,0.86-0.73,1.24-1.19c0.37-0.46,0.56-1.04,0.56-1.73c-0.03-0.66-0.11-1.27-0.25-1.82
	c-0.13-0.55-0.28-1.03-0.43-1.42c-0.18-0.45-0.4-0.85-0.67-1.21v2.56c0.03,0.12,0.03,0.22,0,0.31c-0.06,0.21-0.2,0.31-0.4,0.31
	c-0.15,0-0.47,0.01-0.97,0.02c-0.49,0.02-1.01,0.02-1.55,0.02H289.94z M303.02,40.31c-0.48,0.06-0.91-0.31-1.3-1.12
	c-0.39-0.81-0.78-1.93-1.17-3.37c-0.21-0.72-0.61-1.13-1.19-1.24c-0.58-0.1-1.21-0.08-1.86,0.07c-0.78,0.18-1.6,0.51-2.47,0.99v7.01
	c0.45,0.45,0.9,0.88,1.35,1.3c0.39,0.36,0.81,0.72,1.26,1.08c0.45,0.36,0.88,0.61,1.3,0.76c0.42,0.18,0.86,0.25,1.33,0.22
	c0.46-0.03,0.91-0.12,1.33-0.27c0.48-0.15,0.96-0.36,1.44-0.63V40.31z M301.04,21.62c0,0.03,0.06,0.13,0.18,0.29
	c0.12,0.17,0.31,0.34,0.56,0.54c0.25,0.2,0.58,0.39,0.99,0.58c0.4,0.2,0.88,0.34,1.42,0.43c0.54,0.09,0.94,0.19,1.21,0.29
	c0.27,0.11,0.43,0.24,0.49,0.4c0.06,0.17,0.05,0.34-0.02,0.52c-0.08,0.18-0.19,0.38-0.34,0.58c-0.15,0.24-0.31,0.44-0.49,0.61
	c-0.18,0.16-0.34,0.31-0.49,0.43c-0.18,0.12-0.37,0.22-0.58,0.31h4.22v-4.99H301.04z M304.92,49.52c0.27,0.12,0.48,0.25,0.63,0.4
	c0.15,0.15,0.25,0.35,0.29,0.58c0.04,0.24-0.04,0.54-0.25,0.9c-0.24,0.39-0.6,0.76-1.08,1.1c-0.48,0.34-0.97,0.67-1.48,0.97
	c-0.6,0.33-1.24,0.66-1.93,0.99h7.01v-4.94H304.92z"/>
<path d="M337.84,32.94c-0.21-0.54-0.45-1.06-0.72-1.57c-0.24-0.42-0.53-0.87-0.88-1.35c-0.34-0.48-0.77-0.91-1.28-1.3
	c-0.96-0.78-1.87-1.27-2.74-1.48c-0.87-0.21-1.66-0.31-2.38-0.31c-0.36,0-0.79,0.03-1.3,0.09c-0.51,0.06-1.06,0.16-1.64,0.31
	c-0.58,0.15-1.16,0.37-1.73,0.65c-0.57,0.29-1.08,0.65-1.53,1.1c-0.9,0.9-1.6,1.87-2.09,2.92c-0.49,1.05-0.82,1.92-0.97,2.61
	c-0.15,0.69-0.28,1.64-0.38,2.85c-0.11,1.21-0.01,2.45,0.29,3.71c0.3,1.26,0.77,2.37,1.42,3.35c0.64,0.97,1.37,1.77,2.18,2.4
	c0.81,0.63,1.74,1.09,2.79,1.39c1.05,0.3,2.2,0.39,3.46,0.27c1.26-0.15,2.36-0.53,3.3-1.15c0.94-0.61,1.73-1.31,2.36-2.09
	c0.63-0.78,1.15-1.64,1.55-2.58c0.4-0.94,0.65-1.67,0.74-2.18c0-0.12,0.03-0.24,0.09-0.36c0.12-0.21,0.27-0.28,0.45-0.22
	c0.09,0.06,0.48,0.25,1.17,0.56c0.69,0.31,1.42,0.67,2.2,1.06c0.93,0.45,1.96,0.94,3.1,1.48c0.06,0.03,0.12,0.07,0.18,0.13
	c0.12,0.12,0.13,0.31,0.04,0.58c-0.09,0.3-0.25,0.75-0.49,1.35c-0.24,0.6-0.54,1.24-0.9,1.93c-0.33,0.69-0.7,1.31-1.12,1.86
	c-0.42,0.55-0.94,1.18-1.57,1.86c-0.63,0.66-1.43,1.31-2.4,1.95c-0.97,0.64-2.13,1.21-3.48,1.68c-1.35,0.45-2.67,0.74-3.98,0.88
	c-1.3,0.13-2.55,0.19-3.75,0.16c-1.2-0.06-2.45-0.19-3.75-0.38c-1.3-0.19-2.48-0.5-3.53-0.92c-1.05-0.42-2.04-0.89-2.97-1.42
	c-0.93-0.52-1.8-1.22-2.61-2.09c-0.81-0.87-1.48-1.73-2.02-2.58c-0.54-0.85-1.02-1.73-1.44-2.63c-0.18-0.45-0.35-0.94-0.52-1.48
	c-0.17-0.54-0.3-1.09-0.4-1.64c-0.11-0.55-0.2-1.09-0.27-1.59c-0.08-0.51-0.13-0.97-0.16-1.39c-0.06-0.78-0.07-1.62-0.02-2.54
	c0.04-0.91,0.19-2,0.43-3.26c0.24-1.23,0.6-2.33,1.08-3.3c0.48-0.97,1.03-1.94,1.66-2.9c0.3-0.48,0.69-0.97,1.17-1.48
	c0.48-0.51,0.99-1,1.53-1.46c0.54-0.46,1.08-0.88,1.62-1.24c0.54-0.36,1.03-0.64,1.48-0.85c0.93-0.39,2.04-0.82,3.33-1.28
	c1.29-0.46,2.77-0.7,4.45-0.7c0.81,0,1.53,0.01,2.18,0.02c0.64,0.01,1.25,0.05,1.82,0.11c0.57,0.06,1.11,0.15,1.62,0.27
	c0.51,0.12,1.06,0.28,1.66,0.49c0.6,0.24,1.12,0.47,1.57,0.67c0.45,0.21,0.84,0.4,1.17,0.58c0.36,0.21,0.69,0.4,0.99,0.58v-1.84
	c0-0.06,0.01-0.13,0.04-0.22c0.06-0.15,0.19-0.22,0.4-0.22h5.48c0.06,0,0.13,0.02,0.22,0.04c0.15,0.09,0.22,0.22,0.22,0.4v11.55
	c0,0.09-0.02,0.18-0.04,0.27c-0.06,0.18-0.22,0.27-0.49,0.27h-5.39c-0.06,0-0.12-0.01-0.18-0.04c-0.06-0.03-0.12-0.07-0.18-0.11
	C337.92,33.15,337.87,33.06,337.84,32.94z M315.38,25.89l0.27,0.27c0.18,0.18,0.36,0.4,0.54,0.67c0.15,0.24,0.3,0.58,0.45,1.01
	c0.15,0.43,0.19,1.06,0.13,1.86c-0.06,0.81-0.25,1.53-0.58,2.16c-0.33,0.63-0.72,1.29-1.17,1.98c-0.45,0.69-0.92,1.24-1.42,1.64
	c-0.49,0.4-0.86,0.86-1.1,1.37c-0.12,0.24-0.21,0.47-0.27,0.67c-0.06,0.21-0.11,0.43-0.13,0.67c-0.03,0.24-0.03,0.5,0,0.79
	c0.03,0.29,0.09,0.62,0.18,1.01c0.15,0.78,0.38,1.52,0.7,2.22c0.31,0.7,0.73,1.31,1.24,1.82c0.24,0.27,0.46,0.49,0.65,0.67
	c0.19,0.18,0.38,0.38,0.56,0.61c0.18,0.22,0.37,0.5,0.56,0.83c0.19,0.33,0.4,0.76,0.61,1.3c0.21,0.57,0.4,1.12,0.56,1.66
	c0.16,0.54,0.29,1.03,0.38,1.48c0.12,0.54,0.21,1.05,0.27,1.53l1.21,0.67c0.15,0.06,0.31,0.13,0.49,0.2
	c0.18,0.08,0.34,0.14,0.49,0.2l0.45,0.22c-0.06-0.33-0.11-0.66-0.13-0.99c-0.03-0.3-0.06-0.62-0.09-0.97
	c-0.03-0.34-0.03-0.68,0-1.01c0.06-0.66,0.22-1.34,0.49-2.04c0.27-0.7,0.48-1.39,0.63-2.04c0.09-0.33,0.13-0.6,0.13-0.81
	c0-0.21-0.02-0.38-0.07-0.52c-0.04-0.13-0.11-0.25-0.2-0.34c-0.09-0.09-0.17-0.19-0.22-0.31c-0.06-0.12-0.11-0.24-0.13-0.36
	c-0.03-0.12-0.07-0.22-0.13-0.31c-0.06-0.12-0.11-0.22-0.13-0.31c-0.06,0.09-0.15,0.16-0.27,0.22c-0.24,0.12-0.46,0.18-0.67,0.18
	c-0.24-0.03-0.52-0.08-0.85-0.16c-0.33-0.07-0.78-0.26-1.35-0.56c-0.57-0.27-1.12-0.73-1.66-1.39c-0.54-0.66-0.93-1.41-1.17-2.25
	c-0.12-0.42-0.13-0.76-0.02-1.03c0.1-0.27,0.25-0.49,0.45-0.67c0.19-0.18,0.42-0.32,0.67-0.43c0.25-0.1,0.46-0.22,0.61-0.34
	c0.33-0.24,0.66-0.55,0.99-0.92c0.33-0.37,0.66-0.64,0.99-0.79c0.15-0.06,0.31-0.05,0.47,0.02c0.16,0.07,0.31,0.19,0.43,0.34
	c0.12,0.15,0.25,0.34,0.4,0.58c0.06-0.51,0.15-1.02,0.27-1.53c0.09-0.42,0.21-0.88,0.36-1.39c0.15-0.51,0.34-0.99,0.58-1.44
	c0.33-0.57,0.64-1.1,0.94-1.59c0.3-0.49,0.79-1.06,1.48-1.68c0.33-0.33,0.67-0.6,1.03-0.81c0.36-0.21,0.69-0.39,0.99-0.54
	c0.33-0.15,0.66-0.28,0.99-0.4c-0.15,0.03-0.28,0.06-0.4,0.09c-0.12,0.03-0.24,0.05-0.36,0.07c-0.12,0.02-0.25,0.04-0.4,0.07
	c-0.3,0.03-0.76,0.17-1.37,0.4c-0.61,0.24-1.15,0.51-1.6,0.81c-0.24,0.15-0.46,0.38-0.67,0.67c-0.21,0.3-0.4,0.62-0.58,0.97
	c-0.18,0.34-0.34,0.68-0.49,1.01c-0.15,0.33-0.27,0.58-0.36,0.76c-0.09,0.21-0.22,0.4-0.38,0.58c-0.16,0.18-0.36,0.32-0.58,0.43
	c-0.22,0.11-0.47,0.15-0.74,0.13c-0.27-0.01-0.54-0.11-0.81-0.29c-0.3-0.21-0.47-0.45-0.52-0.72c-0.04-0.27-0.02-0.55,0.07-0.83
	c0.09-0.28,0.23-0.58,0.43-0.88c0.19-0.3,0.38-0.57,0.56-0.81c0.33-0.51,0.58-0.99,0.74-1.44c0.16-0.45,0.29-0.97,0.38-1.57
	c0.06-0.3,0.09-0.64,0.09-1.01c0-0.37,0-0.73,0-1.06c0-0.39-0.02-0.78-0.04-1.17c-0.27,0.18-0.54,0.34-0.81,0.49
	c-0.24,0.15-0.48,0.29-0.72,0.43c-0.24,0.13-0.43,0.26-0.58,0.38c-0.15,0.12-0.32,0.27-0.52,0.45c-0.2,0.18-0.38,0.35-0.56,0.49
	C315.8,25.48,315.59,25.68,315.38,25.89z M325.49,54.64c1.59,0.21,3.03,0.26,4.31,0.16c1.29-0.1,2.4-0.25,3.33-0.43
	c1.08-0.21,2.05-0.48,2.92-0.81c-0.15-0.03-0.28-0.04-0.4-0.04c-0.12,0-0.25,0-0.4,0c-0.15,0-0.3-0.01-0.45-0.04
	c-0.15-0.03-0.43-0.08-0.83-0.16c-0.4-0.07-0.88-0.16-1.42-0.25s-1.11-0.17-1.71-0.25c-0.6-0.07-1.15-0.13-1.66-0.16
	c-0.54-0.03-1.03,0.06-1.48,0.27c-0.45,0.21-0.84,0.43-1.17,0.67C326.13,53.91,325.79,54.26,325.49,54.64z M331.01,26.38
	c1.44,0.15,2.63,0.57,3.57,1.26c0.94,0.69,1.71,1.41,2.31,2.16c0.69,0.9,1.21,1.87,1.57,2.92h5.08v-2.2
	c-0.21,0.06-0.43,0.1-0.67,0.13c-0.21,0.03-0.43,0.04-0.65,0.04c-0.22,0-0.46-0.03-0.7-0.09c-0.24-0.06-0.42-0.1-0.54-0.13
	c-0.12-0.03-0.22-0.1-0.29-0.2c-0.08-0.1-0.16-0.28-0.27-0.52c-0.11-0.24-0.26-0.6-0.47-1.08c-0.24-0.48-0.45-0.77-0.63-0.88
	c-0.18-0.1-0.39-0.16-0.63-0.18c-0.24-0.01-0.53-0.09-0.88-0.22c-0.34-0.13-0.79-0.49-1.33-1.06c-0.54-0.6-0.88-1.12-1.01-1.55
	c-0.13-0.43-0.17-0.82-0.11-1.15c0.06-0.36,0.21-0.69,0.45-0.99c-0.27-0.12-0.55-0.24-0.85-0.36c-0.24-0.12-0.52-0.23-0.83-0.34
	c-0.31-0.1-0.64-0.22-0.97-0.34c-0.33-0.09-0.67-0.16-1.01-0.22c-0.34-0.06-0.67-0.12-0.97-0.18c-0.33-0.06-0.67-0.1-1.03-0.13
	c0.48,0.21,0.9,0.51,1.26,0.9c0.36,0.39,0.66,0.79,0.9,1.21c0.27,0.48,0.49,0.97,0.67,1.48c0.06,0.42,0,0.74-0.18,0.97
	c-0.18,0.22-0.4,0.4-0.67,0.52C331.81,26.28,331.43,26.35,331.01,26.38z M337.12,53.07c0.66-0.3,1.25-0.64,1.77-1.01
	c0.52-0.37,0.97-0.73,1.33-1.06c0.42-0.36,0.79-0.73,1.12-1.12c0.12-0.3,0.21-0.61,0.27-0.94c0.06-0.27,0.08-0.57,0.07-0.9
	c-0.02-0.33-0.1-0.64-0.25-0.94c-0.15-0.3-0.33-0.4-0.54-0.29c-0.21,0.11-0.42,0.3-0.63,0.58c-0.21,0.29-0.4,0.6-0.58,0.94
	c-0.18,0.34-0.31,0.62-0.4,0.83c-0.18,0.42-0.46,0.81-0.83,1.17c-0.37,0.36-0.88,0.43-1.51,0.22c-0.3-0.09-0.52-0.36-0.65-0.81
	c-0.13-0.45-0.23-0.92-0.29-1.42c-0.06-0.49-0.09-0.94-0.09-1.33c0-0.39-0.02-0.55-0.04-0.49c-0.03,0.06-0.11,0.16-0.25,0.29
	c-0.13,0.13-0.31,0.29-0.52,0.45c-0.21,0.16-0.43,0.33-0.67,0.49c-0.24,0.16-0.46,0.31-0.67,0.43c-0.24,0.15-0.5,0.28-0.79,0.38
	c-0.28,0.11-0.55,0.2-0.79,0.29c-0.3,0.12-0.6,0.21-0.9,0.27c0.15,0.03,0.3,0.07,0.45,0.13c0.15,0.06,0.31,0.13,0.47,0.2
	c0.16,0.08,0.37,0.14,0.61,0.2c0.27,0.09,0.55,0.19,0.83,0.29c0.28,0.11,0.56,0.2,0.83,0.29c0.03,0.03,0.07,0.04,0.13,0.04
	c0.03,0,0.05,0.01,0.07,0.02c0.01,0.01,0.04,0.02,0.07,0.02c0.21,0.09,0.42,0.21,0.63,0.36c0.24,0.21,0.47,0.45,0.7,0.72
	c0.22,0.27,0.41,0.52,0.56,0.76C336.81,52.47,336.97,52.77,337.12,53.07z"/>
<path d="M270.78,57.88c-0.17-0.05-0.33-0.05-0.5,0h-8.54v-39.8h8.54c0.44,0,0.72-0.17,0.83-0.5c0.05-0.17,0.08-0.33,0.08-0.5V7.3
	c0-0.44-0.17-0.72-0.5-0.83c-0.17-0.05-0.3-0.08-0.41-0.08h-20.75c0,0,0,0,0,0h-0.84c-0.31,0-0.56,0.25-0.56,0.56V69.1
	c0,0.31,0.25,0.56,0.56,0.56h0.42v0h21.17c0.5,0,0.8-0.14,0.91-0.41c0.05-0.17,0.08-0.33,0.08-0.5v-9.87
	C271.28,58.32,271.11,57.99,270.78,57.88z M270.03,7.71v9.2h-7.79c0.39-0.17,0.75-0.36,1.08-0.58c0.28-0.22,0.58-0.48,0.91-0.79
	c0.33-0.3,0.64-0.68,0.91-1.12c0.28-0.39,0.48-0.75,0.62-1.08c0.14-0.33,0.15-0.65,0.04-0.95c-0.11-0.3-0.41-0.55-0.91-0.75
	c-0.5-0.19-1.24-0.37-2.24-0.54c-0.99-0.16-1.87-0.43-2.61-0.79c-0.75-0.36-1.35-0.72-1.82-1.08c-0.47-0.36-0.82-0.69-1.04-1
	c-0.22-0.3-0.33-0.48-0.33-0.54H270.03z M250.47,64.64c-0.12,0.15-0.26,0.29-0.39,0.43V55.1c0.06,0.13,0.13,0.24,0.18,0.38
	c0.28,0.72,0.54,1.59,0.79,2.61c0.25,1.02,0.4,2.14,0.46,3.36C251.51,62.72,251.16,63.78,250.47,64.64z M252.95,52.32
	c-0.78-0.28-1.58-0.75-2.4-1.41c-0.83-0.66-0.46-2.02-0.46-3.45l-0.36-9.96c0,0-0.57-5.48,0.57-5.74c1.22-0.28,2.36-0.32,3.44-0.12
	c1.08,0.19,1.81,0.95,2.2,2.28c0.72,2.65,1.44,4.73,2.16,6.22c0.72,1.49,1.52,2.18,2.4,2.07v8.87c-0.88,0.5-1.77,0.88-2.65,1.16
	c-0.77,0.28-1.59,0.44-2.45,0.5C254.54,52.79,253.73,52.66,252.95,52.32z M269.89,68.33h-12.94c1.27-0.61,2.46-1.22,3.57-1.83
	c0.94-0.55,1.85-1.15,2.74-1.78c0.88-0.64,1.55-1.31,1.99-2.03c0.39-0.66,0.54-1.21,0.46-1.66c-0.08-0.44-0.26-0.8-0.54-1.08
	c-0.28-0.28-0.66-0.52-1.16-0.75h5.89V68.33z"/>
<path d="M336.85,58.87v9.87c0,0.17,0.03,0.33,0.08,0.5c0.11,0.28,0.41,0.41,0.91,0.41h21.17v0h0.42c0.31,0,0.56-0.25,0.56-0.56V6.94
	c0-0.31-0.25-0.56-0.56-0.56h-0.84c0,0,0,0,0,0h-20.75c-0.11,0-0.25,0.03-0.41,0.08c-0.33,0.11-0.5,0.39-0.5,0.83v9.78
	c0,0.17,0.03,0.33,0.08,0.5c0.11,0.33,0.39,0.5,0.83,0.5h8.54v39.8h-8.54c-0.17-0.05-0.33-0.05-0.5,0
	C337.02,57.99,336.85,58.32,336.85,58.87z M351.28,7.71c0,0.06-0.11,0.24-0.33,0.54c-0.22,0.31-0.57,0.64-1.04,1
	c-0.47,0.36-1.08,0.72-1.82,1.08c-0.75,0.36-1.62,0.62-2.61,0.79c-0.99,0.17-1.74,0.35-2.24,0.54c-0.5,0.19-0.8,0.44-0.91,0.75
	c-0.11,0.31-0.1,0.62,0.04,0.95c0.14,0.33,0.35,0.69,0.62,1.08c0.28,0.44,0.58,0.82,0.91,1.12c0.33,0.3,0.64,0.57,0.91,0.79
	c0.33,0.22,0.69,0.41,1.08,0.58h-7.79v-9.2H351.28z M356.62,61.45c0.06-1.22,0.21-2.34,0.46-3.36c0.25-1.02,0.51-1.89,0.79-2.61
	c0.05-0.13,0.12-0.25,0.18-0.38v9.97c-0.13-0.14-0.26-0.28-0.39-0.43C356.97,63.78,356.62,62.72,356.62,61.45z M352.73,52.74
	c-0.86-0.05-1.67-0.22-2.45-0.5c-0.88-0.28-1.77-0.66-2.65-1.16v-8.87c0.88,0.11,1.69-0.58,2.4-2.07c0.72-1.49,1.44-3.57,2.16-6.22
	c0.39-1.33,1.12-2.09,2.2-2.28c1.08-0.19,2.23-0.15,3.44,0.12c1.14,0.26,0.57,5.74,0.57,5.74l-0.36,9.96c0,1.43,0.37,2.79-0.46,3.45
	c-0.83,0.66-1.63,1.13-2.4,1.41C354.41,52.66,353.59,52.79,352.73,52.74z M338.24,59.21h5.89c-0.5,0.22-0.88,0.47-1.16,0.75
	c-0.28,0.28-0.46,0.64-0.54,1.08c-0.08,0.44,0.07,0.99,0.46,1.66c0.44,0.72,1.11,1.4,1.99,2.03c0.88,0.64,1.8,1.23,2.74,1.78
	c1.11,0.61,2.29,1.22,3.57,1.83h-12.94V59.21z"/>
</svg>
